<mxfile host="app.diagrams.net" modified="2023-09-26T08:41:18.552Z" agent="Mozilla/5.0 (Windows NT 10.0; Win64; x64) AppleWebKit/537.36 (KHTML, like Gecko) Chrome/116.0.0.0 Safari/537.36" version="21.6.9" etag="ejZp_pVesbVEq3-x2bI_" type="github">
  <diagram name="第 1 页" id="Q5_G3kxFIjLR-UHzNJD_">
    <mxGraphModel>
      <root>
        <mxCell id="0" />
        <mxCell id="1" parent="0" />
      </root>
    </mxGraphModel>
  </diagram>
</mxfile>
